<?xml version="1.0" standalone="no"?><!DOCTYPE svg PUBLIC "-//W3C//DTD SVG 1.1//EN" "http://www.w3.org/Graphics/SVG/1.1/DTD/svg11.dtd"><svg t="1649840817444" class="icon" viewBox="0 0 1024 1024" version="1.1" xmlns="http://www.w3.org/2000/svg" p-id="3893" xmlns:xlink="http://www.w3.org/1999/xlink" width="200" height="200"><defs><style type="text/css">@font-face { font-family: feedback-iconfont; src: url("//at.alicdn.com/t/font_1031158_u69w8yhxdu.woff2?t=1630033759944") format("woff2"), url("//at.alicdn.com/t/font_1031158_u69w8yhxdu.woff?t=1630033759944") format("woff"), url("//at.alicdn.com/t/font_1031158_u69w8yhxdu.ttf?t=1630033759944") format("truetype"); }
</style></defs><path d="M273.9 168.3H739v37.1H273.9zM273.9 819.6H739v37.1H273.9zM165.812 740.898v-465.1h37.1v465.1zM821.11 740.896v-465.1h37.1v465.1z" fill="#2979FF" p-id="3894"></path><path d="M184.7 66.2c-66.8 0-121 54.2-121 121s54.2 121 121 121 121-54.2 121-121-54.1-121-121-121z m-0.1 203.5c-45.7 0-82.7-37-82.7-82.7s37-82.7 82.7-82.7 82.7 37 82.7 82.7c0.1 45.7-37 82.7-82.7 82.7zM184.7 717.5c-66.8 0-121 54.2-121 121s54.2 121 121 121 121-54.2 121-121-54.1-121-121-121z m-0.1 203.6c-45.7 0-82.7-37-82.7-82.7s37-82.7 82.7-82.7 82.7 37 82.7 82.7c0.1 45.6-37 82.7-82.7 82.7zM840 717.5c-66.8 0-121 54.2-121 121s54.2 121 121 121 121-54.2 121-121-54.1-121-121-121z m-0.1 203.6c-45.7 0-82.7-37-82.7-82.7s37-82.7 82.7-82.7 82.7 37 82.7 82.7c0.1 45.6-37 82.7-82.7 82.7zM840 66.2c-66.8 0-121 54.2-121 121s54.2 121 121 121 121-54.2 121-121-54.1-121-121-121z m-0.1 203.5c-45.7 0-82.7-37-82.7-82.7s37-82.7 82.7-82.7 82.7 37 82.7 82.7c0.1 45.7-37 82.7-82.7 82.7z" fill="#2979FF" p-id="3895"></path></svg>