<?xml version="1.0" standalone="no"?><!DOCTYPE svg PUBLIC "-//W3C//DTD SVG 1.1//EN" "http://www.w3.org/Graphics/SVG/1.1/DTD/svg11.dtd"><svg t="1649840661887" class="icon" viewBox="0 0 1024 1024" version="1.1" xmlns="http://www.w3.org/2000/svg" p-id="1361" xmlns:xlink="http://www.w3.org/1999/xlink" width="200" height="200"><defs><style type="text/css">@font-face { font-family: feedback-iconfont; src: url("//at.alicdn.com/t/font_1031158_u69w8yhxdu.woff2?t=1630033759944") format("woff2"), url("//at.alicdn.com/t/font_1031158_u69w8yhxdu.woff?t=1630033759944") format("woff"), url("//at.alicdn.com/t/font_1031158_u69w8yhxdu.ttf?t=1630033759944") format("truetype"); }
</style></defs><path d="M876.085248 75.09333333H147.90929067C107.855872 75.09333333 75.09333333 107.855872 75.09333333 147.90929067v728.18141866C75.09333333 916.13866667 107.855872 948.90666667 147.90929067 948.90666667H876.085248C916.13866667 948.90666667 948.90666667 916.13866667 948.90666667 876.09070933v-728.18141866c0-40.05341867-32.768-72.81595733-72.82141867-72.81595734z m0 764.58666667c0 21.84533333-14.55991467 36.41070933-36.405248 36.41070933H184.32c-21.85079467 0-36.41070933-14.565376-36.41070933-36.41070933V184.32c0-21.84533333 14.55991467-36.41070933 36.41070933-36.41070933h655.36c21.84533333 0 36.405248 14.565376 36.405248 36.41070933v655.36z m-546.13333333-655.36h-109.22666667c-3.64270933 0-10.92266667 0-14.565376 3.64270933-7.27995733 3.637248-14.565376 10.91720533-18.202624 18.19716267C184.32 209.80258133 184.32 217.088 184.32 220.73070933v109.22666667c0 21.839872 14.55991467 36.41070933 36.405248 36.41070933s36.41070933-14.57083733 36.41070933-36.41070933V308.10658133L304.46933333 355.43995733c7.27995733 7.28541867 14.565376 10.928128 25.48258134 10.928128 10.928128 0 18.20808533-3.64270933 25.48804266-10.928128 14.55991467-14.55991467 14.55991467-36.405248 0-50.970624l-47.333376-47.333376h21.84533334c21.84533333 0 36.41070933-14.565376 36.41070933-36.405248 0-21.85079467-14.565376-36.41070933-36.41070933-36.41070933z m0 582.53858133h-21.84533334L355.43995733 719.53066667c14.55991467-14.565376 14.55991467-36.405248 0-50.97608534-14.55991467-14.55991467-36.405248-14.55991467-50.970624 0l-47.333376 47.33883734v-21.85079467c0-21.84533333-14.565376-36.405248-36.41070933-36.405248S184.32 672.19729067 184.32 694.042624v109.22666667c0 3.64270933 0 10.92266667 3.637248 14.565376 3.637248 7.27995733 10.92266667 14.565376 18.202624 18.20808533 3.64270933 3.637248 10.92266667 3.637248 14.565376 3.637248h109.22666667c21.84533333 0 36.41070933-14.565376 36.41070933-36.41070933S351.797248 766.85858133 329.95191467 766.85858133zM817.83466667 187.96270933C814.19195733 184.32 806.912 184.32 803.26929067 184.32h-109.22666667c-21.839872 0-36.405248 14.55991467-36.405248 36.41070933 0 21.839872 14.565376 36.405248 36.405248 36.405248h21.84533333L668.55458133 304.46933333c-14.565376 14.565376-14.565376 36.41070933 0 50.970624 7.28541867 7.28541867 14.565376 10.928128 25.48804267 10.928128s18.202624-3.64270933 25.48804267-10.928128l47.32791466-47.333376v21.85079467c0 21.839872 14.57083733 36.41070933 36.41070934 36.41070933 21.84533333 0 36.41070933-14.57083733 36.41070933-36.41070933v-109.22666667c0-3.64270933 0-10.928128-3.637248-14.57083733-3.64817067-7.27995733-10.928128-14.55991467-18.20808533-18.19716267z m-14.565376 469.67466667c-21.839872 0-36.41070933 14.55991467-36.41070934 36.405248v21.85079467L719.53066667 668.55458133c-14.565376-14.55991467-36.41070933-14.55991467-50.97608534 0-14.565376 14.57083733-14.565376 36.41070933 0 50.97608534l47.333376 47.32791466h-21.84533333c-21.839872 0-36.405248 14.565376-36.405248 36.41070934S672.202752 839.68 694.042624 839.68h109.22666667c3.64270933 0 10.92266667 0 14.565376-3.637248 7.27995733-3.64270933 14.55991467-10.928128 18.20808533-18.20808533 3.637248-3.64270933 3.637248-10.92266667 3.637248-14.565376v-109.22666667c0-21.84533333-14.565376-36.405248-36.41070933-36.405248z" fill="#2979FF" p-id="1362"></path></svg>