<?xml version="1.0" standalone="no"?><!DOCTYPE svg PUBLIC "-//W3C//DTD SVG 1.1//EN" "http://www.w3.org/Graphics/SVG/1.1/DTD/svg11.dtd"><svg t="1646752013798" class="icon" viewBox="0 0 1239 1024" version="1.1" xmlns="http://www.w3.org/2000/svg" p-id="3698" xmlns:xlink="http://www.w3.org/1999/xlink" width="241.9921875" height="200"><defs><style type="text/css"></style></defs><path d="M662.929155 1023.027623a83.489741 83.489741 0 0 1-33.395896-7.235778 86.272732 86.272732 0 0 1-51.207041-79.593553v-311.695031L140.839976 1001.876889a82.376544 82.376544 0 0 1-89.612321 15.028153A86.272732 86.272732 0 0 1 0.020614 936.198292V86.82933A86.272732 86.272732 0 0 1 51.784253 7.235778a82.376544 82.376544 0 0 1 89.612322 15.584751l436.373044 377.373628V86.82933a86.272732 86.272732 0 0 1 51.76364-79.593552 82.376544 82.376544 0 0 1 90.16892 15.584751L1210.621854 445.278617a87.385929 87.385929 0 0 1 0 128.574201L718.588982 1001.876889a82.933142 82.933142 0 0 1-55.659827 21.150734z m-578.862202-87.385929l492.58947-424.127883-490.919675-426.910874v851.595355z m577.749005 0l492.589471-424.127883-490.919676-426.910874v851.595355z" fill="#2979ff" p-id="3699"></path></svg>