<?xml version="1.0" standalone="no"?><!DOCTYPE svg PUBLIC "-//W3C//DTD SVG 1.1//EN" "http://www.w3.org/Graphics/SVG/1.1/DTD/svg11.dtd"><svg t="1649730362342" class="icon" viewBox="0 0 1024 1024" version="1.1" xmlns="http://www.w3.org/2000/svg" p-id="4680" xmlns:xlink="http://www.w3.org/1999/xlink" width="200" height="200"><defs><style type="text/css">@font-face { font-family: feedback-iconfont; src: url("//at.alicdn.com/t/font_1031158_u69w8yhxdu.woff2?t=1630033759944") format("woff2"), url("//at.alicdn.com/t/font_1031158_u69w8yhxdu.woff?t=1630033759944") format("woff"), url("//at.alicdn.com/t/font_1031158_u69w8yhxdu.ttf?t=1630033759944") format("truetype"); }
</style></defs><path d="M0 841.264833m66.698336 0l889.920264 0q66.698336 0 66.698336 66.698336l0 49.338495q0 66.698336-66.698336 66.698336l-889.920264 0q-66.698336 0-66.698336-66.698336l0-49.338495q0-66.698336 66.698336-66.698336Z" p-id="4681" fill="#2979FF"></path><path d="M571.412868 698.000462L798.18721 420.973948a19.187193 19.187193 0 0 0-14.984284-31.430448h-99.590666C683.61226 66.102254 395.987107 8.357941 240.84495 0.683064a18.273517 18.273517 0 0 0-10.050434 36.547033c115.30589 61.947222 166.106267 167.202678 172.136528 332.212534A19.187193 19.187193 0 0 1 383.743851 388.812559h-79.672533a19.187193 19.187193 0 0 0-14.801548 32.161389l226.774342 277.757455a36.547033 36.547033 0 0 0 55.368756-0.730941z" p-id="4682" fill="#2979FF"></path></svg>