<?xml version="1.0" standalone="no"?><!DOCTYPE svg PUBLIC "-//W3C//DTD SVG 1.1//EN" "http://www.w3.org/Graphics/SVG/1.1/DTD/svg11.dtd"><svg t="1649840909868" class="icon" viewBox="0 0 1024 1024" version="1.1" xmlns="http://www.w3.org/2000/svg" p-id="3475" xmlns:xlink="http://www.w3.org/1999/xlink" width="200" height="200"><defs><style type="text/css">@font-face { font-family: feedback-iconfont; src: url("//at.alicdn.com/t/font_1031158_u69w8yhxdu.woff2?t=1630033759944") format("woff2"), url("//at.alicdn.com/t/font_1031158_u69w8yhxdu.woff?t=1630033759944") format("woff"), url("//at.alicdn.com/t/font_1031158_u69w8yhxdu.ttf?t=1630033759944") format("truetype"); }
</style></defs><path d="M921.988 961.099L801.825 840.942l36.468-36.466 120.971 120.965" p-id="3476" fill="#2979FF"></path><path d="M706.792 905.564c-112.482 1.645-196.423-95.133-196.423-196.619 0-116.041 93.179-196.445 196.423-196.445 120.587 0 197 101.882 196.423 196.445-0.645 105.892-83.368 193.995-196.423 196.619z m0-327.582c-74.252 0-130.949 56.599-130.949 130.963 0 74.367 56.697 130.963 130.949 130.963s130.949-56.597 130.949-130.963c0-74.364-56.697-130.963-130.949-130.963z" p-id="3477" fill="#2979FF"></path><path d="M476.324 806.315l-28.237 14.06-320.062-159.5V302.277l320.062-155.902 320.062 155.726v146.108h64.013V255.953L447.653 63.945 64.012 255.953v447.93l384.075 191.756 92.249-46.441z" p-id="3478" fill="#2979FF"></path><path d="M448.087 448.209l-256.05-128.213v63.794l256.05 128.337zM448.087 482.12" p-id="3479" fill="#2979FF"></path><path d="M448.087 512.127l256.05-128.337-0.133-63.794-255.917 128.213z" p-id="3480" fill="#2979FF"></path></svg>