<?xml version="1.0" standalone="no"?><!DOCTYPE svg PUBLIC "-//W3C//DTD SVG 1.1//EN" "http://www.w3.org/Graphics/SVG/1.1/DTD/svg11.dtd"><svg t="1647749786078" class="icon" viewBox="0 0 1024 1024" version="1.1" xmlns="http://www.w3.org/2000/svg" p-id="4267" xmlns:xlink="http://www.w3.org/1999/xlink" width="200" height="200"><defs><style type="text/css">@font-face { font-family: feedback-iconfont; src: url("//at.alicdn.com/t/font_1031158_u69w8yhxdu.woff2?t=1630033759944") format("woff2"), url("//at.alicdn.com/t/font_1031158_u69w8yhxdu.woff?t=1630033759944") format("woff"), url("//at.alicdn.com/t/font_1031158_u69w8yhxdu.ttf?t=1630033759944") format("truetype"); }
</style></defs><path d="M137.90246 0.00041a48.573421 48.573421 0 0 0-35.589106 15.293433A53.964778 53.964778 0 0 0 87.0404 50.934149V968.345622a48.706541 48.706541 0 0 0 15.272954 35.640306 49.97118 49.97118 0 0 0 35.589106 15.293434h746.336982a48.639981 48.639981 0 0 0 35.589105-15.293434 50.37054 50.37054 0 0 0 15.272954-35.640306V288.717094L646.727857 0.00041H137.90246z" fill="#2979FF" p-id="4268" data-spm-anchor-id="a313x.7781069.0.i11" class="selected"></path><path d="M138.24038 83.451256a42.490863 42.490863 0 1 0 84.976606 0 42.490863 42.490863 0 0 0-84.976606 0zM138.24038 253.276468a42.490863 42.490863 0 1 0 84.976606 0 42.490863 42.490863 0 0 0-84.976606 0zM138.24038 423.09656a42.490863 42.490863 0 1 0 84.976606 0.13312A42.490863 42.490863 0 0 0 138.24038 423.09656zM138.24038 592.988332a42.490863 42.490863 0 1 0 42.490863-42.490863 42.424303 42.424303 0 0 0-42.490863 42.495983zM138.24038 762.813544a42.490863 42.490863 0 1 0 84.976606 0.13312A42.490863 42.490863 0 0 0 138.24038 762.813544zM138.24038 932.705317a42.490863 42.490863 0 1 0 84.976606 0 42.490863 42.490863 0 0 0-84.976606 0zM796.928116 423.09656a42.490863 42.490863 0 1 0 84.976606 0.13312 42.490863 42.490863 0 0 0-84.981726-0.13312zM796.928116 592.988332a42.490863 42.490863 0 1 0 42.485743-42.490863 42.424303 42.424303 0 0 0-42.490863 42.495983zM796.928116 762.813544a42.490863 42.490863 0 1 0 84.976606 0.13312 42.490863 42.490863 0 0 0-84.981726-0.13312zM796.928116 932.705317a42.490863 42.490863 0 1 0 84.976606 0 42.490863 42.490863 0 0 0-84.981726 0zM631.091383 505.753807L406.011153 351.155469a16.691193 16.691193 0 0 0-17.817593-0.79872A17.817593 17.817593 0 0 0 378.880284 365.583623v308.331397a18.022393 18.022393 0 0 0 9.308156 15.293434 16.824313 16.824313 0 0 0 17.817593-0.86528l225.08535-155.391938a15.359994 15.359994 0 0 0 7.644157-13.634554 18.687993 18.687993 0 0 0-7.644157-13.296635v-0.26624z" fill="#FFFFFF" p-id="4269"></path><path d="M935.101501 288.717094h-237.445025c-27.822069-0.6656-50.22718-23.075831-50.928619-50.93374V0.00041l288.373644 288.716684z" fill="#FFFFFF" opacity=".4" p-id="4270" data-spm-anchor-id="a313x.7781069.0.i14" class="selected"></path></svg>