<?xml version="1.0" standalone="no"?><!DOCTYPE svg PUBLIC "-//W3C//DTD SVG 1.1//EN" "http://www.w3.org/Graphics/SVG/1.1/DTD/svg11.dtd"><svg t="1646752031207" class="icon" viewBox="0 0 1024 1024" version="1.1" xmlns="http://www.w3.org/2000/svg" p-id="4143" xmlns:xlink="http://www.w3.org/1999/xlink" width="200" height="200"><defs><style type="text/css"></style></defs><path d="M161.737825 1021.192982a63.438596 63.438596 0 0 1-26.947369-6.175438 62.877193 62.877193 0 0 1-36.491228-56.140351V66.245614a62.877193 62.877193 0 0 1 36.491228-56.140351 62.877193 62.877193 0 0 1 67.368421 8.421053l536.140351 444.631579a63.438596 63.438596 0 0 1 0 97.68421l-536.140351 445.192983a62.877193 62.877193 0 0 1-40.421052 15.157894zM182.509754 112.280702v802.807017l482.245614-401.403508z m501.894737 415.438596z" fill="#2979ff" p-id="4144"></path><path d="M796.123789 1024m-35.929824 0l0.561403 0q-35.929825 0-35.929824-35.929825l0-952.14035q0-35.929825 35.929824-35.929825l-0.561403 0q35.929825 0 35.929824 35.929825l0 952.14035q0 35.929825-35.929824 35.929825Z" fill="#2979ff" p-id="4145"></path></svg>