<?xml version="1.0" standalone="no"?><!DOCTYPE svg PUBLIC "-//W3C//DTD SVG 1.1//EN" "http://www.w3.org/Graphics/SVG/1.1/DTD/svg11.dtd"><svg t="1646754193894" class="icon" viewBox="0 0 1024 1024" version="1.1" xmlns="http://www.w3.org/2000/svg" p-id="7945" xmlns:xlink="http://www.w3.org/1999/xlink" width="200" height="200"><defs><style type="text/css"></style></defs><path d="M512 0C230.4 0 0 230.4 0 512c0 281.6 230.4 512 512 512 117.76 0 227.84-38.4 320-110.08 10.24-7.68 12.8-23.04 5.12-35.84-7.68-10.24-23.04-12.8-35.84-5.12C719.36 939.52 616.96 972.8 512 972.8 256 972.8 51.2 768 51.2 512 51.2 256 256 51.2 512 51.2 768 51.2 972.8 256 972.8 512c0 87.04-25.6 171.52-69.12 243.2-7.68 12.8-2.56 28.16 7.68 33.28 12.8 7.68 28.16 2.56 33.28-7.68 51.2-79.36 76.8-174.08 76.8-271.36C1024 230.4 793.6 0 512 0z" p-id="7946" fill="#0043b3"></path><path d="M714.24 458.24c-17.92-15.36-245.76-222.72-245.76-222.72-10.24-10.24-25.6-7.68-35.84 2.56-5.12 5.12-7.68 12.8-7.68 17.92 0 0 0 0 0 0 0 0 0 499.2 0 512 0 15.36 10.24 25.6 25.6 25.6 5.12 0 12.8-2.56 15.36-7.68 2.56-2.56 217.6-186.88 240.64-207.36 23.04-20.48 33.28-38.4 33.28-64C742.4 491.52 732.16 473.6 714.24 458.24zM680.96 535.04c-7.68 5.12-204.8 176.64-204.8 176.64l0-399.36c0 0 186.88 166.4 202.24 181.76C696.32 512 698.88 519.68 680.96 535.04z" p-id="7947" fill="#0043b3"></path></svg>