<?xml version="1.0" standalone="no"?><!DOCTYPE svg PUBLIC "-//W3C//DTD SVG 1.1//EN" "http://www.w3.org/Graphics/SVG/1.1/DTD/svg11.dtd"><svg t="1646752020968" class="icon" viewBox="0 0 1024 1024" version="1.1" xmlns="http://www.w3.org/2000/svg" p-id="3944" xmlns:xlink="http://www.w3.org/1999/xlink" width="200" height="200"><defs><style type="text/css"></style></defs><path d="M797.473684 1021.192982a62.877193 62.877193 0 0 1-40.421052-14.596491L219.22807 561.403509a63.438596 63.438596 0 0 1 0-98.245614L757.052632 17.403509a63.438596 63.438596 0 0 1 103.859649 48.842105v891.508772a62.877193 62.877193 0 0 1-36.491228 56.140351 64 64 0 0 1-26.947369 7.298245z m-505.263158-509.192982l482.245614 401.403509V112.280702zM275.368421 495.719298z" fill="#2979ff" p-id="3945"></path><path d="M163.087719 0m35.929825 0l-0.561404 0q35.929825 0 35.929825 35.929825l0 952.14035q0 35.929825-35.929825 35.929825l0.561404 0q-35.929825 0-35.929825-35.929825l0-952.14035q0-35.929825 35.929825-35.929825Z" fill="#2979ff" p-id="3946"></path></svg>