<?xml version="1.0" standalone="no"?><!DOCTYPE svg PUBLIC "-//W3C//DTD SVG 1.1//EN" "http://www.w3.org/Graphics/SVG/1.1/DTD/svg11.dtd"><svg t="1649730444978" class="icon" viewBox="0 0 1024 1024" version="1.1" xmlns="http://www.w3.org/2000/svg" p-id="5597" xmlns:xlink="http://www.w3.org/1999/xlink" width="200" height="200"><defs><style type="text/css">@font-face { font-family: feedback-iconfont; src: url("//at.alicdn.com/t/font_1031158_u69w8yhxdu.woff2?t=1630033759944") format("woff2"), url("//at.alicdn.com/t/font_1031158_u69w8yhxdu.woff?t=1630033759944") format("woff"), url("//at.alicdn.com/t/font_1031158_u69w8yhxdu.ttf?t=1630033759944") format("truetype"); }
</style></defs><path d="M1022.503684 339.908142v-17.102296c0-0.732956-4.031256-24.431852-6.107963-32.372204a164.487444 164.487444 0 0 0-17.835252-29.929019l-7.512795-8.001432L788.324382 37.747211l-5.802565-6.107963a120.815508 120.815508 0 0 0-82.823979-31.150611l-6.901998-0.488637H184.735476A183.971846 183.971846 0 0 0 1.130108 184.094005v655.75091a184.155085 184.155085 0 0 0 183.727528 184.094005h654.162839a184.155085 184.155085 0 0 0 183.727527-184.094005V339.908142zM184.002521 98.216045h505.067462v96.627975a105.301282 105.301282 0 0 1-104.995885 105.240203H288.937325a105.301282 105.301282 0 0 1-104.995884-105.240203zM839.75343 926.51691H484.819699v-251.098359h-189.346853v251.098359H184.002521V635.350313a85.511482 85.511482 0 0 1 85.511482-85.511482h484.911184a85.511482 85.511482 0 0 1 85.511482 85.511482v291.044438z" p-id="5598" fill="#2979FF"></path></svg>