<?xml version="1.0" standalone="no"?><!DOCTYPE svg PUBLIC "-//W3C//DTD SVG 1.1//EN" "http://www.w3.org/Graphics/SVG/1.1/DTD/svg11.dtd"><svg t="1647746590045" class="icon" viewBox="0 0 1048 1024" version="1.1" xmlns="http://www.w3.org/2000/svg" p-id="2430" xmlns:xlink="http://www.w3.org/1999/xlink" width="204.6875" height="200"><defs><style type="text/css">@font-face { font-family: feedback-iconfont; src: url("//at.alicdn.com/t/font_1031158_u69w8yhxdu.woff2?t=1630033759944") format("woff2"), url("//at.alicdn.com/t/font_1031158_u69w8yhxdu.woff?t=1630033759944") format("woff"), url("//at.alicdn.com/t/font_1031158_u69w8yhxdu.ttf?t=1630033759944") format("truetype"); }
</style></defs><path d="M524.272128 0.018022C241.513165 0.018022 12.288102 229.245952 12.288102 512.005018c0 112.734003 36.43904 216.957952 98.17897 301.537997l38.667981-40.258048C97.458176 699.230003 67.143168 609.158963 67.143168 512.005018 67.143168 259.540992 271.807078 54.872986 524.272128 54.872986c252.45696 0 457.120973 204.668006 457.120973 457.132032 0 252.460954-204.664013 457.118003-457.120973 457.118003-96.240026 0-185.530982-29.744026-259.189043-80.53504l-34.539008 42.797978c83.150029 58.344038 184.437965 92.596019 293.728973 92.596019 282.758963 0 511.984026-229.220966 511.984026-511.976038C1036.256154 229.245952 807.031091 0.018022 524.272128 0.018022zM615.693107 256.011981l0 511.987 54.855 0L670.548107 256.012 615.693128 256.012zM377.996083 256.011981l0 511.987 54.855 0L432.851083 256.012 377.996128 256.012z" p-id="2431" fill="#004395"></path></svg>