<?xml version="1.0" standalone="no"?><!DOCTYPE svg PUBLIC "-//W3C//DTD SVG 1.1//EN" "http://www.w3.org/Graphics/SVG/1.1/DTD/svg11.dtd"><svg t="1650453240118" class="icon" viewBox="0 0 1024 1024" version="1.1" xmlns="http://www.w3.org/2000/svg" p-id="2161" xmlns:xlink="http://www.w3.org/1999/xlink" width="200" height="200"><defs><style type="text/css">@font-face { font-family: feedback-iconfont; src: url("//at.alicdn.com/t/font_1031158_u69w8yhxdu.woff2?t=1630033759944") format("woff2"), url("//at.alicdn.com/t/font_1031158_u69w8yhxdu.woff?t=1630033759944") format("woff"), url("//at.alicdn.com/t/font_1031158_u69w8yhxdu.ttf?t=1630033759944") format("truetype"); }
</style></defs><path d="M64 480h96v64H64zM864 480h96v64h-96z" p-id="2162" fill="#2979FF"></path><path d="M512 512m-192 0a192 192 0 1 0 384 0 192 192 0 1 0-384 0Z" p-id="2163" fill="#2979FF"></path><path d="M512 896a382.88 382.88 0 1 1 149.48-30.19A381.62 381.62 0 0 1 512 896z m0-717.55a332.42 332.42 0 1 0 129.82 26.2A331.44 331.44 0 0 0 512 178.45z" p-id="2164" fill="#2979FF"></path><path d="M480 64h64v96h-64zM480 864h64v96h-64z" p-id="2165" fill="#2979FF"></path></svg>