<?xml version="1.0" standalone="no"?><!DOCTYPE svg PUBLIC "-//W3C//DTD SVG 1.1//EN" "http://www.w3.org/Graphics/SVG/1.1/DTD/svg11.dtd"><svg t="1649840572348" class="icon" viewBox="0 0 1024 1024" version="1.1" xmlns="http://www.w3.org/2000/svg" p-id="1604" xmlns:xlink="http://www.w3.org/1999/xlink" width="200" height="200"><defs><style type="text/css">@font-face { font-family: feedback-iconfont; src: url("//at.alicdn.com/t/font_1031158_u69w8yhxdu.woff2?t=1630033759944") format("woff2"), url("//at.alicdn.com/t/font_1031158_u69w8yhxdu.woff?t=1630033759944") format("woff"), url("//at.alicdn.com/t/font_1031158_u69w8yhxdu.ttf?t=1630033759944") format("truetype"); }
</style></defs><path d="M815.5 63.9H208.7c-79.8 0-144.5 64.7-144.5 144.5V815c0 79.8 64.7 144.5 144.5 144.5h606.7c79.8 0 144.5-64.7 144.5-144.5V208.3c0-79.8-64.7-144.4-144.4-144.4z m-289 736.7c0 23.9-19.4 43.3-43.3 43.3s-43.3-19.4-43.3-43.3V583.9H223.2c-23.9 0-43.3-19.4-43.3-43.3s19.4-43.3 43.3-43.3h260c23.9 0 43.3 19.4 43.3 43.3v260z m303.4-303.4h-260c-23.9 0-43.3-19.4-43.3-43.3v-260c0-23.9 19.4-43.3 43.3-43.3s43.3 19.4 43.3 43.3v216.7h216.7c23.9 0 43.3 19.4 43.3 43.3s-19.4 43.3-43.3 43.3z" fill="#2979FF" p-id="1605"></path></svg>