<?xml version="1.0" standalone="no"?><!DOCTYPE svg PUBLIC "-//W3C//DTD SVG 1.1//EN" "http://www.w3.org/Graphics/SVG/1.1/DTD/svg11.dtd"><svg t="1649840566323" class="icon" viewBox="0 0 1024 1024" version="1.1" xmlns="http://www.w3.org/2000/svg" p-id="1358" xmlns:xlink="http://www.w3.org/1999/xlink" width="200" height="200"><defs><style type="text/css">@font-face { font-family: feedback-iconfont; src: url("//at.alicdn.com/t/font_1031158_u69w8yhxdu.woff2?t=1630033759944") format("woff2"), url("//at.alicdn.com/t/font_1031158_u69w8yhxdu.woff?t=1630033759944") format("woff"), url("//at.alicdn.com/t/font_1031158_u69w8yhxdu.ttf?t=1630033759944") format("truetype"); }
</style></defs><path d="M815.3 959.1H208.9c-79.7 0-144.4-64.6-144.4-144.4V208.3c0-79.7 64.6-144.4 144.4-144.4h606.5c79.7 0 144.4 64.6 144.4 144.4v606.5c-0.1 79.7-64.7 144.3-144.5 144.3zM266.6 540.4c0-23.9-19.4-43.3-43.3-43.3S180 516.5 180 540.4v259.9c0 23.9 19.4 43.3 43.3 43.3h259.9c23.9 0 43.3-19.4 43.3-43.3S507.1 757 483.2 757H266.6V540.4z m577.6-317.7c0-23.9-19.4-43.3-43.3-43.3H541c-23.9 0-43.3 19.4-43.3 43.3S517.1 266 541 266h216.6v216.6c0 23.9 19.4 43.3 43.3 43.3s43.3-19.4 43.3-43.3V222.7z" fill="#2979FF" p-id="1359"></path></svg>